<?xml version="1.0" encoding="UTF-8"?>
<svg width="120" height="120" version="1.1" viewBox="0 0 120 120" xmlns="http://www.w3.org/2000/svg">
 <g transform="translate(.97168 6.2777)" fill="#12bdff" style="shape-inside:url(#rect113);white-space:pre" aria-label="T NB">
  <path d="m50.606 49.397v-3.3125h5.9688v-39.625h-13.719v7.2812h-3.8438v-11h41.438v11h-3.8438v-7.2812h-13.719v39.625h5.9688v3.3125z"/>
  <path d="m12.903 103.8v-3.3125h6.2812v-40h-6.2812v-3.3438h11.969l27.969 36.812v-33.469h-6.25v-3.3438h16.375v3.3438h-6.2812v44.219h-3.7812l-29.875-39.313v35.094h6.2812v3.3125z"/>
  <path d="m78.372 81.516v17.094h10.125q5.0938 0 7.5312-2.0938 2.4688-2.125 2.4688-6.4688 0-4.375-2.4688-6.4375-2.4375-2.0938-7.5312-2.0938zm0-19.188v14.062h9.3438q4.625 0 6.875-1.7188 2.2812-1.75 2.2812-5.3125 0-3.5312-2.2812-5.2812-2.25-1.75-6.875-1.75zm-6.3125-5.1875h16.125q7.2188 0 11.125 3t3.9062 8.5312q0 4.2812-2 6.8125t-5.875 3.1562q4.6562 1 7.2188 4.1875 2.5938 3.1562 2.5938 7.9062 0 6.25-4.25 9.6563-4.25 3.4062-12.094 3.4062h-16.75z"/>
 </g>
</svg>
